<svg id="Layer_1" enable-background="new 0 0 510 510" height="512" viewBox="0 0 510 510" width="512" xmlns="http://www.w3.org/2000/svg"><g><path d="m439.89 288.14-183.89 104.14-16-156.458 16-120.822c93.4.5 171.87 70.51 182.73 163.25z" fill="#ff884d"/><path d="m256 115v277.28l-18.36 10.4-167.43-115.46 1.06-8.97c10.9-93.07 89.89-163.25 183.73-163.25z" fill="#ffc34d"/><path d="m270 15v70h-14l-8-35 8-35z" fill="#ffc34d"/><g fill="#ffff80"><path d="m240 15h16v70h-16z"/><path d="m117.5 47.824h30v70h-30z" transform="matrix(.866 -.5 .5 .866 -23.66 77.346)"/><path d="m27.824 137.5h30v70h-30z" transform="matrix(.5 -.866 .866 .5 -127.978 123.337)"/></g><path d="m432.181 157.5h69.998v30h-69.998z" fill="#ffc34d" transform="matrix(.866 -.5 .5 .866 -23.659 256.707)"/><path d="m342.501 67.82h69.999v29.999h-69.999z" fill="#ffc34d" transform="matrix(.5 -.866 .866 .5 117.023 368.331)"/><path d="m495 255c-81.318 0-159.543 24.99-228.503 68.089l-33.299 20.813 135.066 129.208 136.356 21.89h5.38v-240z" fill="#146666"/><path d="m504.62 495h-248.62l-12.158-82.72 12.158-82.72z" fill="#00a98f"/><path d="m256 329.56v165.44h-256v-240h15c81.36 0 160.65 23.09 229.29 66.77l.26.17z" fill="#29cc95"/></g></svg>